<?xml version="1.0" encoding="UTF-8"?>
<svg version="1.1" xmlns="http://www.w3.org/2000/svg" width="225" height="225">
<path d="M0 0 C74.25 0 148.5 0 225 0 C225 74.25 225 148.5 225 225 C150.75 225 76.5 225 0 225 C0 150.75 0 76.5 0 0 Z " fill="#FEFEFE" transform="translate(0,0)"/>
<path d="M0 0 C1.27230469 0.00902344 2.54460937 0.01804687 3.85546875 0.02734375 C5.31919922 0.04474609 5.31919922 0.04474609 6.8125 0.0625 C6.05324219 0.65289062 5.29398438 1.24328125 4.51171875 1.8515625 C2.33513332 3.63440961 0.46965807 5.33073234 -1.375 7.4375 C-1.86355469 7.98148437 -2.35210937 8.52546875 -2.85546875 9.0859375 C-7.09690163 15.37967661 -6.90908285 22.77540404 -6.1875 30.0625 C-4.24310432 36.64191457 -0.10310013 41.1835577 5.625 44.875 C10.85812847 46.82459688 14.90374116 46.78278635 20.125 44.8125 C24.80956641 41.76208466 26.46677199 38.44541204 27.8125 33.0625 C28.21427091 28.74141286 28.3034131 25.79886964 25.8125 22.0625 C25.25820312 22.22234375 24.70390625 22.3821875 24.1328125 22.546875 C21.60228412 23.10921464 19.27837449 23.26609628 16.6875 23.3125 C15.81867188 23.33828125 14.94984375 23.3640625 14.0546875 23.390625 C13.31476563 23.28234375 12.57484375 23.1740625 11.8125 23.0625 C9.8674 20.14485 9.35973683 18.43712715 8.8125 15.0625 C10.97515772 12.76031598 12.6779508 11.18125655 15.90234375 10.84375 C21.66180722 11.23755947 25.7083534 13.01151592 29.8125 17.0625 C35.04329794 23.36628213 34.53233156 30.15335074 33.8125 38.0625 C32.4480776 46.13939332 27.89982 52.63899657 21.671875 57.85546875 C14.16113428 63.17338831 6.09322539 66.29993005 -3.1875 65.0625 C-6.26818029 64.24661207 -9.22671679 63.2384139 -12.1875 62.0625 C-12.1875 61.7325 -12.1875 61.4025 -12.1875 61.0625 C-9.2175 60.0725 -6.2475 59.0825 -3.1875 58.0625 C-4.05632812 58.09730469 -4.92515625 58.13210937 -5.8203125 58.16796875 C-13.86422618 58.35691974 -18.79188563 58.29641844 -24.8125 52.5625 C-29.52874595 46.44206432 -31.86777494 38.71559306 -31.1875 31.0625 C-27.97546065 33.56075283 -25.01256863 36.1327992 -22.1875 39.0625 C-23.40158992 36.53314599 -24.69634732 34.29151922 -26.25 31.9375 C-28.74961486 27.48951614 -29.76314019 23.15769354 -29.1875 18.0625 C-26.46991118 11.61588893 -22.02155262 7.67961262 -16.1875 4.0625 C-16.1875 8.0225 -16.1875 11.9825 -16.1875 16.0625 C-15.754375 14.515625 -15.32125 12.96875 -14.875 11.375 C-13.73055172 7.58166439 -12.64326992 4.23453615 -10.1875 1.0625 C-6.62704823 -0.12431726 -3.74941663 -0.03439832 0 0 Z " fill="#060608" transform="translate(111.1875,66.9375)"/>
<path d="M0 0 C1.8125 1.1875 1.8125 1.1875 3 3 C3.3125 5.5625 3.3125 5.5625 3 8 C1 10 1 10 -2.5 10.25 C-6 10 -6 10 -8 8 C-8.36487512 5.15397406 -8.40199375 3.6135694 -6.8125 1.1875 C-4.35092224 -0.42525784 -2.88934264 -0.4334014 0 0 Z " fill="#121315" transform="translate(117,142)"/>
<path d="M0 0 C2.5625 0.3125 2.5625 0.3125 4.4375 1.4375 C5.5625 3.3125 5.5625 3.3125 5.3125 6.4375 C4.5625 9.3125 4.5625 9.3125 3.5625 10.3125 C0.125 10.5625 0.125 10.5625 -3.4375 10.3125 C-5.4375 7.3125 -5.4375 7.3125 -5.1875 4.75 C-4.19253762 1.51637226 -3.41216263 0.43745675 0 0 Z " fill="#1B1C1D" transform="translate(102.4375,141.6875)"/>
<path d="M0 0 C2.64 0 5.28 0 8 0 C7.67 1.98 7.34 3.96 7 6 C5.68 6 4.36 6 3 6 C3 6.66 3 7.32 3 8 C4.65 8 6.3 8 8 8 C8 8.66 8 9.32 8 10 C5.36 10 2.72 10 0 10 C0 6.7 0 3.4 0 0 Z " fill="#4F4F4F" transform="translate(131,142)"/>
<path d="M0 0 C0.33 0.99 0.66 1.98 1 3 C-0.98 3 -2.96 3 -5 3 C-4.73323796 4.98491642 -4.73323796 4.98491642 -4 7 C-3.01 7.33 -2.02 7.66 -1 8 C-1 7.01 -1 6.02 -1 5 C-0.34 5 0.32 5 1 5 C1 6.65 1 8.3 1 10 C-2.375 10.125 -2.375 10.125 -6 10 C-8 8 -8 8 -8.3125 5.5625 C-8 3 -8 3 -6.8125 1.1875 C-4.44017475 -0.36678206 -2.77958655 -0.22537188 0 0 Z " fill="#2A2B2C" transform="translate(94,142)"/>
<path d="M0 0 C1.65 0 3.3 0 5 0 C5.33 0.99 5.66 1.98 6 3 C4.35 2.67 2.7 2.34 1 2 C1 2.66 1 3.32 1 4 C2.65 4.33 4.3 4.66 6 5 C6.33 6.32 6.66 7.64 7 9 C4.29120665 10.35439668 1.99066732 10.06501451 -1 10 C-1 9.34 -1 8.68 -1 8 C-0.01 7.67 0.98 7.34 2 7 C1.01 6.34 0.02 5.68 -1 5 C-0.67 3.35 -0.34 1.7 0 0 Z " fill="#1F2021" transform="translate(123,142)"/>
<path d="M0 0 C5.75 -0.125 5.75 -0.125 8 1 C8.625 3.5625 8.625 3.5625 9 6 C8.01 6 7.02 6 6 6 C6 4.68 6 3.36 6 2 C5.34 2 4.68 2 4 2 C4 2.99 4 3.98 4 5 C2.68 4.67 1.36 4.34 0 4 C0 2.68 0 1.36 0 0 Z " fill="#E6E6E6" transform="translate(89,145)"/>
<path d="M0 0 C0.33 0.99 0.66 1.98 1 3 C2.65 3 4.3 3 6 3 C4.68 3.33 3.36 3.66 2 4 C2 4.66 2 5.32 2 6 C3.65 6 5.3 6 7 6 C7 6.66 7 7.32 7 8 C4.69 8 2.38 8 0 8 C0 5.36 0 2.72 0 0 Z " fill="#020305" transform="translate(132,144)"/>
<path d="M0 0 C0.33 0.66 0.66 1.32 1 2 C3.52733235 2.65555119 3.52733235 2.65555119 6 3 C6 2.01 6 1.02 6 0 C6.66 0 7.32 0 8 0 C8 1.65 8 3.3 8 5 C5.69 5 3.38 5 1 5 C0.67 3.35 0.34 1.7 0 0 Z " fill="#0E0F11" transform="translate(87,147)"/>
<path d="M0 0 C1.65 0 3.3 0 5 0 C4.67 1.65 4.34 3.3 4 5 C2.68 4.67 1.36 4.34 0 4 C0 2.68 0 1.36 0 0 Z " fill="#EEEEEE" transform="translate(112,145)"/>
<path d="M0 0 C1.65 0 3.3 0 5 0 C4.67 1.65 4.34 3.3 4 5 C2.68 4.67 1.36 4.34 0 4 C0 2.68 0 1.36 0 0 Z " fill="#F2F2F2" transform="translate(100,145)"/>
<path d="M0 0 C0.33 0.99 0.66 1.98 1 3 C1.66 3 2.32 3 3 3 C2.34 6.63 1.68 10.26 1 14 C0.67 14 0.34 14 0 14 C0 9.38 0 4.76 0 0 Z " fill="#E7E7E7" transform="translate(94,73)"/>
<path d="M0 0 C-0.33 0.99 -0.66 1.98 -1 3 C-2.98 3.33 -4.96 3.66 -7 4 C-7.33 5.32 -7.66 6.64 -8 8 C-8.36075949 3.55063291 -8.36075949 3.55063291 -6.8125 1.1875 C-4.44017475 -0.36678206 -2.77958655 -0.22537188 0 0 Z " fill="#484849" transform="translate(117,142)"/>
<path d="M0 0 C0.99 0.33 1.98 0.66 3 1 C3 1.99 3 2.98 3 4 C0.69 4 -1.62 4 -4 4 C-2.68 2.68 -1.36 1.36 0 0 Z " fill="#F8B65E" transform="translate(117,85)"/>
<path d="M0 0 C2 2 4 4 6 6 C4.35 6 2.7 6 1 6 C0.67 6.66 0.34 7.32 0 8 C-0.98120464 4.94736336 -0.98120464 3.05263664 0 0 Z " fill="#CCCCCC" transform="translate(121,144)"/>
</svg>
